<svg width="180" height="180" viewBox="0 0 180 180" fill="none" xmlns="http://www.w3.org/2000/svg">
<path d="M26.838 115.978C27.5091 117.609 28.247 119.216 29.048 120.799C29.8475 122.378 30.7086 123.925 31.6262 125.433L35.282 131.443L29.6223 127.264C29.037 126.832 28.5096 126.381 28.0336 125.909C28.5793 127.973 29.3517 129.829 30.4218 131.495C32.9209 135.383 37.115 138.323 43.927 140.551L44.1991 140.64L44.4199 140.838C50.5717 146.357 57.7372 150.777 65.6062 153.788C73.1788 156.685 81.4028 158.273 90.0001 158.273C96.7636 158.273 103.291 157.292 109.447 155.467C115.819 153.578 121.802 150.782 127.248 147.232L127.592 147.007L128.006 147.009C130.354 147.025 132.756 147.039 135.211 147.049C137.669 147.059 140.177 147.067 142.736 147.071L144.122 147.074V159.949L162.748 141.676L147.553 126.769L148.134 125.828C151.4 120.541 153.965 114.769 155.699 108.644C157.375 102.723 158.272 96.4693 158.272 89.9998C158.272 79.5336 155.92 69.6196 151.716 60.7612C147.348 51.5551 140.98 43.4822 133.177 37.1052L132.399 36.47L132.754 35.5399C132.918 35.1116 133.042 34.6751 133.123 34.238C133.201 33.8155 133.241 33.3629 133.241 32.8839C133.241 30.7927 132.378 28.8988 130.981 27.5287C129.58 26.1541 127.638 25.3033 125.487 25.3033C124.408 25.3033 123.388 25.5138 122.467 25.8944C121.507 26.2913 120.645 26.8737 119.926 27.5954L119.248 28.2776L118.372 27.8771C114.003 25.879 109.375 24.3262 104.546 23.2788C99.8627 22.2629 94.9952 21.7275 90.0001 21.7275C85.0937 21.7275 80.3157 22.2424 75.7167 23.2209C70.979 24.2294 66.4277 25.7265 62.1191 27.6556L61.2852 28.0297L60.614 27.401C59.9098 26.7424 59.0715 26.2099 58.1407 25.8446C57.2517 25.4954 56.2754 25.3033 55.2485 25.3033C53.0986 25.3033 51.1563 26.1541 49.7546 27.5287C48.3588 28.8988 47.4947 30.7927 47.4947 32.8839C47.4947 33.2984 47.5233 33.682 47.5776 34.0333C47.6377 34.4177 47.7265 34.7918 47.8416 35.1519L48.1292 36.0526L47.3861 36.6468C39.4167 43.0209 32.9054 51.1443 28.4363 60.4355C24.1365 69.3732 21.727 79.4008 21.727 89.9998C21.727 94.524 22.1656 98.9412 23.0025 103.21C23.8636 107.604 25.1414 111.837 26.7918 115.865L26.838 115.978ZM105.131 20.57C109.83 21.5896 114.365 23.0793 118.683 24.9879C119.496 24.3101 120.416 23.7512 121.416 23.3382C122.674 22.8174 124.051 22.5299 125.487 22.5299C128.385 22.5299 131.014 23.6866 132.921 25.557C134.832 27.4326 136.015 30.0233 136.015 32.8839C136.015 33.4993 135.955 34.1191 135.842 34.736C135.79 35.0199 135.727 35.2971 135.654 35.5678C143.445 42.1091 149.811 50.2913 154.219 59.5803C158.597 68.8047 161.046 79.1191 161.046 89.9998C161.046 96.7172 160.111 103.222 158.364 109.391C156.664 115.396 154.191 121.082 151.059 126.334L166.696 141.676L141.348 166.545V149.83L135.2 149.811C132.888 149.802 130.623 149.789 128.407 149.775C122.833 153.364 116.724 156.194 110.226 158.121C103.809 160.024 97.0196 161.046 90.0001 161.046C81.061 161.046 72.504 159.393 64.6204 156.377C56.538 153.284 49.1597 148.751 42.7996 143.093C35.4888 140.659 30.9096 137.373 28.093 132.989C25.2962 128.637 24.3059 123.293 24.1387 116.679C22.4583 112.536 21.1592 108.208 20.2834 103.741C19.4113 99.2903 18.9536 94.6957 18.9536 89.9998C18.9536 78.9901 21.4644 68.5575 25.9446 59.2436C30.4629 49.8519 36.9866 41.6052 44.9605 35.061C44.9172 34.8614 44.879 34.6597 44.8475 34.4566C44.7646 33.9211 44.7213 33.3952 44.7213 32.8839C44.7213 30.0233 45.9045 27.4326 47.816 25.557C49.7223 23.6866 52.3504 22.5299 55.2485 22.5299C56.6216 22.5299 57.9382 22.7918 59.1478 23.2663C60.1035 23.6411 60.9932 24.1539 61.7913 24.7795C66.047 22.9363 70.514 21.4971 75.1431 20.5128C79.9416 19.4918 84.9118 18.9541 90.0001 18.9541C95.1888 18.9541 100.252 19.5116 105.131 20.57Z" fill="#FEFEFE"/>
<path d="M90 159.659C128.472 159.659 159.659 128.472 159.659 90C159.659 51.5282 128.472 20.3406 90 20.3406C51.5282 20.3406 20.3406 51.5282 20.3406 90C20.3406 128.472 51.5282 159.659 90 159.659Z" fill="#B6DFEE"/>
<path fill-rule="evenodd" clip-rule="evenodd" d="M116.346 32.884C116.346 37.8373 120.439 41.8524 125.487 41.8524C130.536 41.8524 134.628 37.8373 134.628 32.884C134.628 27.9314 130.536 23.9163 125.487 23.9163C120.439 23.9163 116.346 27.9314 116.346 32.884Z" fill="#3C1311"/>
<path fill-rule="evenodd" clip-rule="evenodd" d="M81.0667 32.884C81.0667 37.8373 85.1588 41.8524 90.2075 41.8524C95.2554 41.8524 99.3483 37.8373 99.3483 32.884C99.3483 27.9314 95.2554 23.9163 90.2075 23.9163C85.1588 23.9163 81.0667 27.9314 81.0667 32.884Z" fill="#3C1311"/>
<path fill-rule="evenodd" clip-rule="evenodd" d="M55.2485 41.8524C60.2972 41.8524 64.3893 37.8373 64.3893 32.884C64.3893 27.9314 60.2972 23.9163 55.2485 23.9163C50.2006 23.9163 46.1084 27.9314 46.1084 32.884C46.1084 37.8373 50.2006 41.8524 55.2485 41.8524Z" fill="#3C1311"/>
<path fill-rule="evenodd" clip-rule="evenodd" d="M51.2333 88.7391C52.2749 88.7391 53.6304 88.739 55.2485 88.7376C56.8673 88.739 58.2228 88.7391 59.2644 88.7391C59.2563 101.659 59.268 114.824 59.3333 122.436C59.3495 124.481 61.0526 126.125 63.1358 126.109C65.2204 126.093 66.8964 124.423 66.8795 122.378C66.8032 113.456 66.7981 97.4324 66.8142 83.0655C66.815 82.3818 66.8157 81.7019 66.8172 81.0263C66.8304 70.541 66.8539 61.1867 66.8663 56.496C67.3651 58.4515 68.3729 62.8408 69.4196 67.4757C70.8617 73.8652 72.3771 80.7219 72.7284 82.3187C72.7768 82.5395 72.8032 82.6598 72.804 82.6642C73.1047 84.2743 74.6788 85.34 76.3196 85.0452C77.4419 84.8434 78.3045 84.0571 78.6419 83.0655C78.7981 82.607 78.8414 82.1046 78.746 81.5955C78.7453 81.5897 78.7079 81.3887 78.6397 81.0263C78.2971 79.2065 77.1829 73.3078 76.0365 67.4757C75.0147 62.2752 73.9673 57.129 73.4194 54.9777C73.2426 54.2867 73.0123 53.6207 72.7284 52.9833C71.6194 50.4953 69.6888 48.432 66.9521 46.9342C63.9785 45.3065 60.0646 44.386 55.2485 44.386C50.4331 44.386 46.5191 45.3065 43.5448 46.9342C40.1076 48.8163 37.9416 51.5904 37.0783 54.9777C35.7932 60.0219 31.7627 81.5339 31.7509 81.5955C31.4502 83.2056 32.5372 84.7503 34.1781 85.0452C35.8189 85.34 37.393 84.2743 37.6937 82.6642C37.7054 82.6034 42.3507 61.5205 43.6314 56.496C43.6622 67.8381 43.7553 106.437 43.6182 122.378C43.6013 124.423 45.2773 126.093 47.3612 126.109C49.4451 126.125 51.1482 124.481 51.1644 122.436C51.2297 114.824 51.2421 101.659 51.2333 88.7391Z" fill="#3C1311"/>
<path fill-rule="evenodd" clip-rule="evenodd" d="M113.902 70.5351C114.986 76.1368 115.928 81.1642 115.933 81.195C116.197 82.6041 115.853 83.9845 115.084 85.0767C114.766 85.5285 114.376 85.9312 113.925 86.2664C113.936 99.7569 113.927 114.113 113.856 122.378C113.84 124.423 115.516 126.093 117.6 126.109C119.684 126.125 121.386 124.481 121.402 122.436C121.468 114.824 121.48 101.659 121.471 88.7391C122.513 88.7391 123.869 88.739 125.487 88.7376C127.105 88.739 128.461 88.7391 129.503 88.7391C129.494 101.659 129.506 114.824 129.572 122.436C129.588 124.481 131.291 126.125 133.375 126.109C135.458 126.093 137.134 124.423 137.118 122.378C136.981 106.437 137.074 67.8381 137.105 56.496C138.385 61.5205 143.031 82.6034 143.043 82.6642C143.343 84.2743 144.918 85.34 146.558 85.0452C148.199 84.7503 149.286 83.2056 148.985 81.5955C148.974 81.5339 144.943 60.0219 143.657 54.9777C142.795 51.5904 140.629 48.8163 137.191 46.9342C134.217 45.3065 130.303 44.386 125.487 44.386C120.672 44.386 116.757 45.3065 113.784 46.9342C111.841 47.9977 110.304 49.3466 109.179 50.9295C109.797 52.0276 110.264 53.1997 110.58 54.4378C110.989 56.0442 111.654 59.2004 112.38 62.7997C113.005 60.0703 113.545 57.7686 113.869 56.496C113.878 59.5371 113.891 64.5373 113.902 70.5351Z" fill="#3C1311"/>
<path fill-rule="evenodd" clip-rule="evenodd" d="M142.735 134.924C38.4286 134.814 25.4934 132.032 25.4934 114.474C25.4934 143.646 38.4286 148.27 142.735 148.452V163.247L164.721 141.676L142.735 120.105V134.924Z" fill="#0D66A2"/>
<path fill-rule="evenodd" clip-rule="evenodd" d="M78.4239 70.5351C79.5073 76.1368 80.4491 81.1642 80.455 81.195C80.7183 82.6041 80.3743 83.9845 79.6056 85.0767C79.288 85.5285 78.897 85.9312 78.4459 86.2664C78.4584 99.7569 78.4488 114.113 78.3777 122.378C78.3616 124.423 80.0376 126.093 82.1215 126.109C84.2046 126.125 85.9078 124.481 85.9239 122.436C85.9892 114.824 86.0017 101.659 85.9929 88.7391C87.0344 88.7391 88.3907 88.739 90.0088 88.7376C91.6268 88.739 92.9823 88.7391 94.0246 88.7391C94.0158 101.659 94.0276 114.824 94.0929 122.436C94.1097 124.481 95.8122 126.125 97.896 126.109C99.9799 126.093 101.656 124.423 101.64 122.378C101.503 106.437 101.595 67.8381 101.627 56.496C102.907 61.5205 107.553 82.6034 107.564 82.6642C107.864 84.2743 109.439 85.34 111.08 85.0452C112.721 84.7503 113.807 83.2056 113.506 81.5955C113.495 81.5339 109.464 60.0219 108.179 54.9777C107.316 51.5904 105.15 48.8163 101.712 46.9342C98.7381 45.3065 94.8242 44.386 90.0088 44.386C85.1933 44.386 81.2787 45.3065 78.3051 46.9342C76.362 47.9977 74.8254 49.3466 73.7009 50.9295C74.3185 52.0276 74.7858 53.1997 75.1012 54.4378C75.5105 56.0442 76.1757 59.2004 76.9012 62.7997C77.5268 60.0703 78.0667 57.7686 78.3909 56.496C78.399 59.5371 78.4122 64.5373 78.4239 70.5351Z" fill="#3C1311"/>
</svg>
