<svg width="180" height="180" viewBox="0 0 180 180" fill="none" xmlns="http://www.w3.org/2000/svg">
<path d="M90.0001 21.7267C71.147 21.7267 54.0786 29.369 41.7235 41.7233C29.3693 54.0783 21.727 71.1468 21.727 89.9998C21.727 97.7177 23.0054 105.133 25.3614 112.044C27.8047 119.213 31.4069 125.844 35.9421 131.713L36.3294 132.214L36.2025 132.834C36.0375 133.638 35.7793 134.925 35.4543 136.559L34.7128 140.316C35.3869 141.056 36.0881 141.794 36.8142 142.53C37.1275 142.847 37.4399 143.158 37.7524 143.464C38.312 140.96 38.8754 138.458 39.4402 135.955L41.2152 137.767C41.626 138.187 42.0455 138.604 42.4702 139.016C42.8707 139.404 43.2976 139.808 43.7502 140.225L44.1932 140.632L44.2072 149.093C46.4964 150.869 48.9103 152.525 51.435 154.049C54.113 155.665 56.9003 157.117 59.78 158.392C60.8949 158.885 61.9893 159.339 63.0573 159.752C63.5649 159.948 64.0724 160.139 64.5778 160.322L64.5837 153.418L66.4394 154.101C70.1517 155.465 74.0179 156.517 78.0045 157.223C81.8957 157.913 85.9042 158.272 90.0001 158.272C108.853 158.272 125.922 150.631 138.277 138.276C150.631 125.921 158.272 108.853 158.272 89.9998C158.272 71.1468 150.631 54.0783 138.277 41.7233C125.922 29.369 108.853 21.7267 90.0001 21.7267ZM39.7629 39.7627C52.6196 26.9059 70.3812 18.9534 90.0001 18.9534C109.619 18.9534 127.381 26.9059 140.237 39.7627C153.093 52.6194 161.046 70.381 161.046 89.9998C161.046 109.618 153.093 127.38 140.237 140.237C127.381 153.094 109.619 161.046 90.0001 161.046C85.748 161.046 81.5795 160.671 77.5277 159.953C74.0399 159.336 70.638 158.462 67.3424 157.354L67.338 164.176L65.5248 163.573C64.3402 163.18 63.1849 162.765 62.0605 162.33C60.8788 161.874 59.7463 161.405 58.6644 160.926C55.6724 159.602 52.7803 158.095 50.0054 156.421C47.2262 154.744 44.5424 152.881 41.9715 150.849L41.4478 150.435L41.4331 141.849L41.0311 141.469L39.3969 148.771L37.638 147.159C36.6595 146.262 35.7272 145.364 34.8426 144.469C33.9536 143.569 33.0698 142.628 32.1932 141.647L31.7333 141.132L31.8631 140.466C32.1822 138.827 32.48 137.312 32.7353 136.028L33.3675 132.898C28.8265 126.912 25.2118 120.185 22.7392 112.932C20.2856 105.733 18.9536 98.0191 18.9536 89.9998C18.9536 70.3817 26.9062 52.6194 39.7629 39.7627Z" fill="#FEFEFE"/>
<path d="M90 159.659C128.472 159.659 159.659 128.472 159.659 90C159.659 51.5282 128.472 20.3406 90 20.3406C51.5282 20.3406 20.3406 51.5282 20.3406 90C20.3406 128.472 51.5282 159.659 90 159.659Z" fill="#B6DFEE"/>
<path fill-rule="evenodd" clip-rule="evenodd" d="M100.705 89.5188C100.705 79.9423 108.467 72.1804 118.043 72.1804C127.619 72.1804 135.381 79.9423 135.381 89.5188C135.381 99.0946 127.619 106.856 118.043 106.856C108.467 106.856 100.705 99.0946 100.705 89.5188ZM131.434 65.0853C129.68 64.1215 127.809 63.3411 125.85 62.7697V58.0724C125.85 57.4958 125.383 57.0286 124.807 57.0286H111.279C110.702 57.0286 110.235 57.4958 110.235 58.0724V62.7697C108.276 63.3411 106.406 64.1215 104.651 65.0853L101.327 61.7618C100.92 61.354 100.259 61.354 99.8523 61.7618L90.286 71.3274C89.8782 71.7352 89.8782 72.3961 90.286 72.8032L93.6095 76.1266C92.6456 77.8819 91.8652 79.7516 91.2945 81.7107H86.5965C86.02 81.7107 85.5527 82.178 85.5527 82.7545V96.2824C85.5527 96.8589 86.02 97.3261 86.5965 97.3261H91.2945C91.8652 99.2853 92.6456 101.156 93.6095 102.91L90.286 106.234C89.8782 106.641 89.8782 107.302 90.286 107.71L99.8523 117.276C100.259 117.683 100.92 117.683 101.327 117.276L104.651 113.952C106.406 114.916 108.276 115.696 110.235 116.267V120.965C110.235 121.542 110.702 122.008 111.279 122.008H124.807C125.383 122.008 125.85 121.542 125.85 120.965V116.267C127.809 115.697 129.68 114.916 131.434 113.952L134.758 117.276C135.166 117.683 135.827 117.683 136.234 117.276L145.8 107.71C146.207 107.302 146.207 106.642 145.8 106.234L142.476 102.91C143.44 101.156 144.221 99.2853 144.791 97.3261H149.489C150.065 97.3261 150.533 96.8589 150.533 96.2824V82.7545C150.533 82.178 150.065 81.7107 149.489 81.7107H144.791C144.221 79.7516 143.44 77.8819 142.476 76.1266L145.8 72.8032C146.207 72.3961 146.207 71.7352 145.8 71.3274L136.234 61.7611C135.827 61.354 135.166 61.354 134.758 61.7611L131.434 65.0853Z" fill="#0D66A2"/>
<path fill-rule="evenodd" clip-rule="evenodd" d="M55.5814 64.8181C53.3655 58.378 56.7895 51.3607 63.2296 49.1441C69.6697 46.9282 76.687 50.3521 78.9029 56.7922C81.1196 63.2323 77.6956 70.2497 71.2555 72.4656C64.8154 74.6822 57.7981 71.2582 55.5814 64.8181ZM70.5939 41.2729C69.1907 41.0308 67.7523 40.9391 66.3029 41.0081L65.2152 37.8489C65.0817 37.4616 64.6592 37.2555 64.2719 37.389L55.1736 40.5196C54.7856 40.6531 54.5802 41.0756 54.713 41.4628L55.8007 44.6228C54.6154 45.4604 53.5379 46.4176 52.5807 47.4717L49.5763 46.0061C49.2081 45.8264 48.7636 45.979 48.5839 46.348L44.3648 54.9952C44.1851 55.3634 44.3377 55.8078 44.7059 55.9875L47.7103 57.4538C47.4682 58.857 47.3765 60.2954 47.4462 61.7448L44.2863 62.8326C43.899 62.9653 43.6929 63.3878 43.8257 63.7751L46.957 72.8741C47.0905 73.2614 47.513 73.4675 47.9003 73.334L51.0602 72.247C51.8978 73.4323 52.855 74.5091 53.9098 75.4663L52.4435 78.4707C52.2638 78.8389 52.4164 79.2842 52.7846 79.4639L61.4325 83.6829C61.8007 83.8626 62.2452 83.71 62.425 83.3411L63.8912 80.3367C65.2944 80.5788 66.7328 80.6712 68.1822 80.6015L69.2699 83.7614C69.4027 84.1487 69.8259 84.3548 70.2132 84.2213L79.3115 81.09C79.6988 80.9572 79.9049 80.5348 79.7721 80.1475L78.6844 76.9876C79.8697 76.1499 80.9472 75.1919 81.9037 74.1379L84.9088 75.6042C85.277 75.7839 85.7208 75.6306 85.9005 75.2624L90.1203 66.6145C90.3 66.2463 90.1474 65.8025 89.7792 65.6228L86.7741 64.1565C87.0169 62.7526 87.1086 61.3149 87.0389 59.8648L90.1988 58.7778C90.5861 58.6443 90.7922 58.2218 90.6587 57.8345L87.5274 48.7362C87.3939 48.3482 86.9721 48.1421 86.5841 48.2756L83.4249 49.3633C82.5873 48.1773 81.6293 47.1005 80.5753 46.1433L82.0416 43.1389C82.2213 42.7707 82.0687 42.3262 81.6998 42.1465L73.0526 37.9267C72.6836 37.747 72.2391 37.9003 72.0594 38.2685L70.5939 41.2729Z" fill="#0D66A2"/>
<path fill-rule="evenodd" clip-rule="evenodd" d="M56.0493 108.549C55.3224 102.725 59.4542 97.4133 65.2789 96.6857C71.1043 95.9581 76.4156 100.091 77.1432 105.916C77.8701 111.741 73.7383 117.052 67.9129 117.78C62.0882 118.507 56.777 114.375 56.0493 108.549ZM72.8867 91.3524C71.7454 90.8999 70.5491 90.5676 69.3139 90.3688L68.9574 87.5111C68.9134 87.1605 68.5936 86.9118 68.243 86.9551L60.0139 87.9835C59.6633 88.0268 59.4146 88.3465 59.4586 88.6971L59.8151 91.5548C58.6664 92.0507 57.5882 92.6676 56.5943 93.3871L54.3205 91.618C54.0417 91.4008 53.6398 91.4514 53.4227 91.7302L48.3307 98.2759C48.1136 98.5546 48.1635 98.9566 48.4422 99.173L50.7168 100.943C50.2635 102.083 49.9305 103.28 49.7325 104.515L46.8747 104.871C46.5241 104.915 46.2755 105.235 46.3195 105.586L47.3464 113.815C47.3904 114.166 47.7102 114.414 48.0608 114.37L50.9185 114.014C51.4144 115.162 52.0312 116.24 52.7508 117.235L50.9816 119.508C50.7645 119.787 50.8151 120.189 51.0938 120.406L57.6395 125.499C57.9183 125.715 58.3195 125.665 58.5366 125.387L60.3058 123.113C61.4471 123.565 62.6435 123.898 63.8787 124.096L64.2351 126.954C64.2792 127.305 64.599 127.553 64.9496 127.51L73.1787 126.483C73.5293 126.438 73.7779 126.119 73.7339 125.768L73.3774 122.91C74.5254 122.415 75.6036 121.798 76.5982 121.078L78.8721 122.847C79.1508 123.064 79.5527 123.014 79.7699 122.735L84.8618 116.19C85.0796 115.911 85.029 115.509 84.7503 115.292L82.4757 113.523C82.929 112.382 83.2613 111.185 83.4601 109.95L86.3178 109.594C86.6684 109.55 86.917 109.23 86.873 108.879L85.8461 100.65C85.8021 100.3 85.4823 100.051 85.1317 100.095L82.274 100.451C81.7782 99.3035 81.1613 98.2253 80.4417 97.2307L82.2109 94.9568C82.428 94.6781 82.3782 94.2761 82.0987 94.059L75.553 88.9663C75.2743 88.75 74.8723 88.7998 74.6559 89.0786L72.8867 91.3524Z" fill="#0D66A2"/>
<path fill-rule="evenodd" clip-rule="evenodd" d="M54.3991 113.119C59.4471 113.119 63.5392 109.104 63.5392 104.151C63.5392 99.198 59.4471 95.1829 54.3991 95.1829C49.3505 95.1829 45.2583 99.198 45.2583 104.151C45.2583 109.104 49.3505 113.119 54.3991 113.119Z" fill="#3C1311"/>
<path fill-rule="evenodd" clip-rule="evenodd" d="M66.1019 118.201C63.1283 116.573 59.2143 115.652 54.3989 115.652C49.5828 115.652 45.6689 116.573 42.6953 118.201C39.2566 120.082 37.0914 122.857 36.2288 126.244C35.6104 128.669 34.3576 134.902 33.2222 140.726C34.9136 142.619 36.6989 144.426 38.5694 146.14C40.0327 139.573 42.0124 130.777 42.7811 127.763C42.7928 132.073 42.8134 140.321 42.8273 149.766C47.8231 153.714 53.3258 157.05 59.2217 159.659C61.4148 160.63 63.6623 161.499 65.9581 162.263C65.9581 161.394 65.9588 160.526 65.9596 159.659C65.9603 157.869 65.9618 156.088 65.964 154.332C65.9647 153.648 65.9662 152.968 65.9669 152.293C65.9801 141.808 66.0036 132.453 66.016 127.763C66.5148 129.718 67.5227 134.107 68.5694 138.742C70.0121 145.132 71.5261 151.989 71.8782 153.585C71.9266 153.805 71.953 153.926 71.9537 153.931C72.2544 155.54 73.8285 156.606 75.4693 156.312C76.5916 156.109 77.4549 155.324 77.7916 154.332C77.9478 153.874 77.9911 153.371 77.8958 152.862C77.895 152.856 77.8576 152.655 77.7894 152.293C77.4468 150.473 76.3327 144.574 75.1862 138.742C74.1645 133.542 73.117 128.396 72.5684 126.244C72.3931 125.553 72.162 124.887 71.8782 124.249C70.7691 121.762 68.8385 119.699 66.1019 118.201Z" fill="#3C1311"/>
</svg>
