<svg width="180" height="180" viewBox="0 0 180 180" fill="none" xmlns="http://www.w3.org/2000/svg">
<path d="M155.938 107.773C156.347 106.254 156.705 104.709 157.011 103.144C157.31 101.613 157.559 100.046 157.756 98.4478L157.926 97.071L159.618 97.2852C160.471 89.2644 159.911 81.3192 158.107 73.7451C156.151 65.5263 152.731 57.7564 148.064 50.8123C143.431 43.9167 137.567 37.8265 130.686 32.9084C124.056 28.1715 116.479 24.5216 108.143 22.2881C98.9817 19.8339 89.7617 19.3167 80.9157 20.4867C71.7287 21.7021 62.9362 24.738 55.0277 29.3136C50.1169 32.1537 45.548 35.5872 41.4389 39.5458C37.3922 43.4436 33.79 47.8519 30.7438 52.7048L30.0807 53.761L15.6463 46.6329L24.1695 71.8248L24.0609 72.2275C23.6502 73.7568 23.2922 75.3001 22.9893 76.8529C22.69 78.3852 22.4414 79.9527 22.2441 81.5524L22.0739 82.9299L20.3824 82.715C19.5294 90.7358 20.089 98.6803 21.8927 106.255C23.8497 114.474 27.2692 122.243 31.9357 129.187C36.5692 136.083 42.4328 142.174 49.3145 147.091C55.9438 151.828 63.5216 155.478 71.857 157.711C81.0184 160.166 90.2384 160.683 99.0844 159.513C108.271 158.297 117.064 155.261 124.972 150.687C129.883 147.847 134.452 144.413 138.561 140.454C142.608 136.557 146.21 132.149 149.256 127.296L149.919 126.24L164.354 133.368L155.831 108.175L155.938 107.773V107.773ZM159.73 103.675C159.44 105.159 159.103 106.629 158.722 108.083L169.116 138.805L150.924 129.821C147.903 134.452 144.39 138.68 140.479 142.448C136.207 146.562 131.46 150.13 126.359 153.081C118.142 157.834 109.001 160.989 99.4416 162.253C90.2384 163.471 80.6538 162.935 71.1419 160.387C62.4829 158.067 54.6067 154.272 47.7111 149.345C40.5558 144.232 34.4582 137.898 29.6384 130.725C24.7827 123.499 21.2267 115.425 19.1949 106.894C17.2181 98.5886 16.6842 89.8365 17.8013 80.9964L17.9744 79.6263L19.6761 79.8419C19.8441 78.6705 20.0421 77.4999 20.2702 76.3329C20.5614 74.8365 20.8981 73.3644 21.278 71.9172L10.8844 41.1955L29.0766 50.1793C32.0964 45.548 35.6098 41.3202 39.5216 37.5522C43.7927 33.438 48.5399 29.8696 53.6414 26.9194C61.858 22.1664 70.9996 19.0109 80.5578 17.7463C89.7617 16.5287 99.3463 17.0642 108.858 19.6131C117.517 21.9331 125.393 25.7275 132.289 30.6551C139.444 35.7676 145.542 42.1021 150.362 49.2742C155.217 56.5006 158.774 64.5757 160.804 73.1062C162.782 81.4116 163.316 90.1637 162.199 99.0038L162.026 100.374L160.324 100.158C160.156 101.33 159.957 102.501 159.73 103.67V103.675V103.675Z" fill="#FEFEFE"/>
<path d="M90 159.659C128.472 159.659 159.659 128.472 159.659 90C159.659 51.5282 128.472 20.3406 90 20.3406C51.5282 20.3406 20.3406 51.5282 20.3406 90C20.3406 128.472 51.5282 159.659 90 159.659Z" fill="#B6DFEE"/>
<path fill-rule="evenodd" clip-rule="evenodd" d="M95.4968 56.6126C93.977 57.4914 92.5519 58.574 91.2653 59.8598C89.9795 61.1456 88.8968 62.5708 88.0188 64.0914C87.113 65.6588 86.433 67.3151 85.9797 69.0139C85.7289 69.9527 86.2871 70.918 87.2259 71.1689C88.1655 71.4197 89.1308 70.8623 89.3817 69.9227C89.7587 68.5092 90.3191 67.1398 91.0621 65.854C91.7809 64.6099 92.6795 63.4312 93.7585 62.353C94.8374 61.2733 96.0162 60.3747 97.2594 59.6566C98.546 58.9136 99.9154 58.3532 101.329 57.9755C102.268 57.7246 102.826 56.7593 102.575 55.8205C102.323 54.8808 101.359 54.3234 100.419 54.5742C98.7213 55.0275 97.0643 55.7075 95.4968 56.6126Z" fill="#FEFEFE"/>
<path fill-rule="evenodd" clip-rule="evenodd" d="M87.2259 71.169C86.287 70.9181 85.7289 69.9528 85.9797 69.0139C86.433 67.3152 87.113 65.6589 88.0188 64.0915C88.8968 62.5709 89.9795 61.1457 91.2653 59.8599C92.5518 58.5741 93.977 57.4915 95.4968 56.6127C97.0643 55.7076 98.7213 55.0276 100.419 54.5743C101.359 54.3235 102.323 54.8809 102.575 55.8205C102.826 56.7594 102.268 57.7247 101.329 57.9756C99.9154 58.3533 98.546 58.9137 97.2594 59.6567C96.0161 60.3748 94.8374 61.2734 93.7584 62.3531C92.6795 63.4313 91.7809 64.61 91.0621 65.854C90.3191 67.1399 89.7587 68.5093 89.3817 69.9227C89.1308 70.8624 88.1655 71.4198 87.2259 71.169ZM79.3064 79.3071C70.8741 77.7147 61.8257 80.1807 55.2998 86.7066C51.2164 90.79 48.7225 95.8614 47.8174 101.151L105.703 101.162C112.578 101.162 119.454 98.5401 124.7 93.2941C128.489 89.5042 130.91 84.8641 131.962 79.9878L100.012 48.0381C95.1359 49.09 90.4958 51.5113 86.7059 55.3005C80.18 61.8264 77.7139 70.8741 79.3064 79.3071V79.3071ZM96.0528 39.0932L140.907 83.9472L148.506 76.3482L103.652 31.4949L96.0528 39.0932ZM101.15 104.879H52.9034L79.987 131.963C84.8633 130.911 89.5034 128.49 93.2934 124.7C98.7491 119.245 101.368 112.026 101.15 104.879ZM83.9465 140.908L39.0932 96.0536L31.4941 103.653L76.3482 148.506L83.9465 140.908V140.908Z" fill="#3C1311"/>
<path fill-rule="evenodd" clip-rule="evenodd" d="M22.7618 71.9838L50.799 62.4505L32.7477 53.5349C38.6831 44.1894 46.7516 36.5655 56.097 31.1596C71.1389 22.4589 89.4917 19.5021 107.591 24.352C124.058 28.7647 137.476 38.876 146.294 51.9989C155.233 65.3024 159.453 81.6982 157.344 98.3897L160.829 98.8298C163.047 81.2713 158.61 64.029 149.213 50.0434C139.931 36.231 125.817 25.5901 108.5 20.95C89.4653 15.85 70.1596 18.9615 54.3345 28.1163C44.3978 33.8633 35.8349 41.9933 29.5738 51.9674L13.2653 43.9136L22.7618 71.9838V71.9838ZM33.7071 128.001C24.7672 114.697 20.5467 98.3024 22.6555 81.6102L19.1714 81.1701C16.9525 98.7285 21.3887 115.971 30.787 129.956C40.0687 143.769 54.1826 154.409 71.4997 159.049C90.5347 164.149 109.84 161.038 125.666 151.884C135.601 146.137 144.165 138.007 150.426 128.032L166.735 136.086L157.238 108.017L129.2 117.55L147.252 126.465C141.317 135.811 133.248 143.434 123.903 148.84C108.861 157.54 90.5083 160.497 72.4085 155.647C55.9415 151.235 42.5244 141.124 33.7071 128.001V128.001Z" fill="#0D66A2"/>
</svg>
