<svg width="180" height="180" viewBox="0 0 180 180" fill="none" xmlns="http://www.w3.org/2000/svg">
<path d="M89.9999 21.7267C71.1469 21.7267 54.0784 29.369 41.7234 41.7233C29.3691 54.0783 21.7268 71.1468 21.7268 89.9998C21.7268 94.915 22.244 99.7018 23.2261 104.309C24.2383 109.055 25.7413 113.615 27.6784 117.931L27.8024 118.208V129.771H34.4926L34.9092 130.34C41.2386 138.968 49.5462 146.056 59.1608 150.931C68.4198 155.626 78.8985 158.272 89.9999 158.272C107.34 158.272 123.166 151.814 135.203 141.172C147.384 130.404 155.691 115.348 157.766 98.3661L157.79 98.1673L162.499 87.4516L158.136 85.5336L158.072 84.7033C156.717 67.0172 148.624 51.2184 136.358 39.8697C124.188 28.6091 107.9 21.7267 89.9999 21.7267ZM39.7628 39.7627C52.6195 26.9059 70.3811 18.9534 89.9999 18.9534C108.614 18.9534 125.561 26.1196 138.233 37.8439C150.808 49.4786 159.168 65.6023 160.765 83.6639L166.149 86.0301L160.492 98.9037C158.292 116.486 149.665 132.075 137.035 143.241C124.501 154.321 108.033 161.046 89.9999 161.046C78.4591 161.046 67.5564 158.29 57.9153 153.401C48.1202 148.434 39.63 141.263 33.1004 132.544H25.029V118.778C23.0699 114.36 21.5471 109.71 20.518 104.883C19.4933 100.077 18.9535 95.0969 18.9535 89.9998C18.9535 70.3817 26.9061 52.6194 39.7628 39.7627Z" fill="#FEFEFE"/>
<path d="M90 159.659C128.472 159.659 159.659 128.472 159.659 90C159.659 51.5282 128.472 20.3406 90 20.3406C51.5282 20.3406 20.3406 51.5282 20.3406 90C20.3406 128.472 51.5282 159.659 90 159.659Z" fill="#B6DFEE"/>
<path fill-rule="evenodd" clip-rule="evenodd" d="M42.1254 131.158V94.9253H26.4161V131.158H42.1254ZM48.7078 86.4864V131.158H64.4171V83.7578H48.7078V86.4864ZM70.9995 79.538V131.158H86.7088V72.5896H70.9995V79.538ZM93.2912 64.1507V131.158H109V61.4221H93.2912V64.1507ZM115.582 57.2023V131.158H131.292V50.2539H115.582V57.2023Z" fill="#3C1311"/>
<path fill-rule="evenodd" clip-rule="evenodd" d="M164.324 86.741L135.029 73.866L142.05 91.8953L99.1885 108.583L77.9347 100.308L34.998 117.026L37.3636 123.145L77.9347 107.348L99.1885 115.623L144.422 98.0112L151.449 116.037L164.324 86.741Z" fill="#0D66A2"/>
</svg>
