<?xml version="1.0" encoding="utf-8"?>
<!-- Generator: Adobe Illustrator 19.0.1, SVG Export Plug-In . SVG Version: 6.00 Build 0)  -->
<svg version="1.1" id="Слой_1" xmlns="http://www.w3.org/2000/svg" xmlns:xlink="http://www.w3.org/1999/xlink" x="0px" y="0px"
	 viewBox="0 0 100 100" style="enable-background:new 0 0 100 100;" xml:space="preserve">
<style type="text/css">
	.st0{fill-rule:evenodd;clip-rule:evenodd;fill:#FEFEFE;}
	.st1{fill-rule:evenodd;clip-rule:evenodd;fill:#B6DFEE;}
	.st2{fill-rule:evenodd;clip-rule:evenodd;fill:#0D66A2;}
	.st3{fill:#3C1311;}
	.st4{fill:#0D66A2;}
</style>
<g>
	<path class="st0" d="M50,87.6c18.9,0,34.4-15.4,34.4-34.4c0-18.9-15.4-34.4-34.4-34.4c-19,0-34.4,15.4-34.4,34.4
		C15.6,72.2,31.1,87.6,50,87.6L50,87.6z"/>
	<path class="st1" d="M50,86.8c18.5,0,33.5-15.1,33.5-33.6c0-18.5-15.1-33.5-33.5-33.5c-18.5,0-33.6,15.1-33.6,33.5
		C16.5,71.7,31.5,86.8,50,86.8L50,86.8z"/>
	<path class="st0" d="M33.8,12.4H66c1.2,0,2.1,1,2.1,2.1v18.3c0,1.2-0.9,2.1-2.1,2.1H33.8c-1.2,0-2.1-1-2.1-2.1V14.5
		C31.6,13.4,32.6,12.4,33.8,12.4L33.8,12.4z"/>
	<path class="st2" d="M33.8,13.2H66c0.7,0,1.2,0.6,1.2,1.3v18.3c0,0.7-0.6,1.3-1.2,1.3H33.8c-0.7,0-1.3-0.6-1.3-1.3V14.5
		C32.5,13.8,33.1,13.2,33.8,13.2L33.8,13.2z"/>
	<path class="st0" d="M35,14.9h29.8c0.4,0,0.8,0.4,0.8,0.8v14.6c0,0.4-0.3,0.8-0.8,0.8H35c-0.4,0-0.8-0.3-0.8-0.8V15.7
		C34.2,15.3,34.5,14.9,35,14.9L35,14.9z"/>
	<path class="st2" d="M46.5,18.7h6.7c0.4,0,0.7,0.1,1,0.4s0.4,0.6,0.4,1v5.8c0,0.4-0.1,0.7-0.4,1s-0.6,0.4-1,0.4h-6.7
		c-0.4,0-0.7-0.2-1-0.4c-0.3-0.3-0.4-0.6-0.4-1v-5.8c0-0.4,0.2-0.7,0.4-1C45.8,18.8,46.1,18.7,46.5,18.7L46.5,18.7z M53.2,19.4h-6.7
		c-0.2,0-0.4,0.1-0.5,0.2c-0.1,0.1-0.2,0.3-0.2,0.5v5.8c0,0.2,0.1,0.4,0.2,0.5c0.1,0.1,0.3,0.2,0.5,0.2h6.7c0.2,0,0.4-0.1,0.5-0.2
		c0.1-0.1,0.2-0.3,0.2-0.5v-5.8c0-0.2-0.1-0.4-0.2-0.5C53.6,19.5,53.4,19.4,53.2,19.4L53.2,19.4z"/>
	<path class="st2" d="M48.4,24.6v-3.1c0-0.2,0.1-0.3,0.3-0.3c0.1,0,0.1,0,0.2,0.1l2.6,1.6c0.1,0.1,0.2,0.3,0.1,0.4
		c0,0.1-0.1,0.1-0.1,0.1l-2.7,1.6c-0.1,0.1-0.3,0-0.4-0.1C48.4,24.7,48.4,24.6,48.4,24.6L48.4,24.6z"/>
	<path class="st2" d="M58.3,60c1.2-1.4,0.3-3.7-1.5-3.8c-0.3-0.7-0.7-1.3-1-1.9l0.5,2.8c0.1,0.5,0,0.9-0.3,1.3
		c-0.3,0.4-0.7,0.7-1.1,0.7c-0.5,0.1-0.9,0-1.3-0.3c-0.1,0-0.1-0.1-0.1-0.1v4c0.3-0.1,0.6-0.2,0.9-0.3v1.6c0,0.5,0.4,0.9,0.9,0.9
		c0.5,0,0.9-0.4,0.9-0.9v-2.4C57,61.2,57.7,60.7,58.3,60L58.3,60z M44,54.4c-0.4,0.6-0.7,1.2-1,1.9c-1.9,0.1-2.8,2.4-1.5,3.8
		c0.6,0.7,1.3,1.2,2.1,1.7v2.4c0,0.5,0.4,0.9,0.9,0.9c0.5,0,0.9-0.4,0.9-0.9v-1.6c0.3,0.1,0.6,0.2,0.9,0.3v-4.1c0,0-0.1,0.1-0.1,0.1
		c-0.4,0.2-0.9,0.3-1.3,0.3c-0.5-0.1-0.9-0.4-1.1-0.7c-0.3-0.4-0.4-0.8-0.3-1.3L44,54.4z"/>
	<path class="st2" d="M37.6,60c1.2-1.4,0.3-3.7-1.5-3.8c-3.1-7-10.7-7-13.8,0c-1.9,0.1-2.8,2.4-1.5,3.8c0.6,0.7,1.3,1.2,2.1,1.7v2.4
		c0,0.5,0.4,0.9,0.9,0.9c0.5,0,0.9-0.4,0.9-0.9v-1.6c2.8,1.1,6.2,1.1,9,0v1.6c0,0.5,0.4,0.9,0.9,0.9c0.5,0,0.9-0.4,0.9-0.9v-2.4
		C36.3,61.2,37,60.7,37.6,60L37.6,60z"/>
	<path class="st2" d="M79,60c1.2-1.4,0.3-3.7-1.6-3.8c-3.1-7-10.7-7-13.7,0c-1.9,0.1-2.8,2.4-1.6,3.8c0.6,0.7,1.3,1.2,2.1,1.7v2.4
		c0,0.5,0.4,0.9,0.9,0.9c0.5,0,0.9-0.4,0.9-0.9v-1.6c2.8,1.1,6.2,1.1,9,0v1.6c0,0.5,0.4,0.9,0.9,0.9c0.5,0,0.9-0.4,0.9-0.9v-2.4
		C77.6,61.2,78.3,60.7,79,60L79,60z"/>
	<path class="st3" d="M52.7,63.9c0,0.6-0.5,1.1-1.1,1.1c-0.6,0-1.1-0.5-1.1-1.1v-5.1h-1.3v5.1c0,0.6-0.5,1.1-1.1,1.1
		S47,64.6,47,63.9v-3.8v-4.6v-2.4l-0.8,4.4c-0.1,0.5-0.7,0.9-1.2,0.8c-0.6-0.1-0.9-0.6-0.8-1.2l1.2-6.4c0.2-1.3,1.7-1.9,4.5-1.9
		c2.7,0,4.2,0.6,4.5,1.9l1.2,6.5c0.1,0.6-0.3,1.1-0.8,1.2c-0.6,0.1-1.1-0.3-1.2-0.8l-0.8-4.5v2.4v4.6V63.9z M49.8,43.7
		c-1.2,0-2.3,1-2.3,2.2c0,1.3,1,2.3,2.3,2.3c1.2,0,2.3-1,2.3-2.3C52.1,44.7,51.1,43.7,49.8,43.7L49.8,43.7z"/>
</g>
</svg>
