<?xml version="1.0" encoding="utf-8"?>
<!-- Generator: Adobe Illustrator 19.0.1, SVG Export Plug-In . SVG Version: 6.00 Build 0)  -->
<svg version="1.1" id="Слой_1" xmlns="http://www.w3.org/2000/svg" xmlns:xlink="http://www.w3.org/1999/xlink" x="0px" y="0px"
	 viewBox="0 0 100 100" style="enable-background:new 0 0 100 100;" xml:space="preserve">
<style type="text/css">
	.st0{fill-rule:evenodd;clip-rule:evenodd;fill:#FEFEFE;}
	.st1{fill-rule:evenodd;clip-rule:evenodd;fill:#B6DFEE;}
	.st2{fill-rule:evenodd;clip-rule:evenodd;fill:#0D66A2;}
	.st3{fill:#3C1311;}
	.st4{fill:#0D66A2;}
</style>
<g>
	<path class="st0" d="M50,89.8c18.9,0,34.4-15.4,34.4-34.4C84.4,36.5,68.9,21,50,21c-19,0-34.4,15.4-34.4,34.4
		C15.6,74.4,31.1,89.8,50,89.8L50,89.8z"/>
	<path class="st1" d="M50,89c18.5,0,33.5-15.1,33.5-33.6c0-18.5-15.1-33.5-33.5-33.5c-18.5,0-33.6,15.1-33.6,33.5
		C16.5,73.9,31.5,89,50,89L50,89z"/>
	<path class="st0" d="M55.7,15.9l0.3,0c3.8,0.5,9.6,2.7,9.6,7.4c0,2.9-2.4,4.9-4.9,6.1c0.1,0.5,0.3,1,0.5,1.2l0.1,0.1l0.1,0.1
		c0.6,1-0.2,2.2-1.4,1.8c-1.3-0.3-2.4-1-3.4-2c-1,0.1-2,0.2-3,0.2c-3.9,0-9.6-1.4-11.5-5.3l-0.2-0.4c-0.3,0-0.6-0.1-0.9-0.1
		c-0.9,0.9-2.1,1.6-3.4,2c-1.2,0.3-2-0.8-1.4-1.8l0.1-0.1l0.1-0.1c0.3-0.3,0.4-0.8,0.5-1.2c-2.5-1.2-4.9-3.2-4.9-6.1
		c0-0.3,0-0.6,0.1-0.9c0.4-2.2,2.2-3.8,4.1-4.8c2.4-1.3,5.2-1.8,7.9-1.8c2.7,0,5.5,0.5,7.9,1.8C53.5,12.9,55,14.1,55.7,15.9
		L55.7,15.9z"/>
	<path class="st3" d="M40.7,24.1c-1,1-2,1.8-3.3,2c-0.5,0.2-0.7-0.2-0.5-0.6c0.4-0.5,0.7-1.2,0.8-2.3c-3-1.2-5-3.2-5-5.6
		c0-3.7,5-6.7,11.2-6.7s11.2,3,11.2,6.7c0,3.7-5,6.7-11.2,6.7C42.8,24.4,41.7,24.3,40.7,24.1L40.7,24.1z"/>
	<path class="st0" d="M44,18.8c-0.6,0-1.1-0.5-1.1-1.1s0.5-1.1,1.1-1.1c0.6,0,1.1,0.5,1.1,1.1S44.6,18.8,44,18.8L44,18.8z
		 M39.6,18.8c-0.6,0-1.1-0.5-1.1-1.1s0.5-1.1,1.1-1.1s1.1,0.5,1.1,1.1S40.3,18.8,39.6,18.8L39.6,18.8z M48.3,18.8
		c-0.6,0-1.1-0.5-1.1-1.1s0.5-1.1,1.1-1.1c0.6,0,1.1,0.5,1.1,1.1S48.9,18.8,48.3,18.8L48.3,18.8z"/>
	<path class="st2" d="M56.9,29.7c0.9,1.1,2,1.8,3.3,2.1c0.5,0.1,0.7-0.2,0.5-0.6c-0.4-0.5-0.7-1.2-0.8-2.3c3-1.2,5-3.2,5-5.6
		c0-3.2-3.8-5.9-8.9-6.5c0.1,0.3,0.1,0.6,0.1,1c0,2.2-1.4,4.1-3.7,5.4c-2.2,1.3-5.1,2.1-8.3,2.1c-0.4,0-0.7,0-1.1,0
		C44.2,28,48.5,30,53.6,30C54.7,30,55.9,29.9,56.9,29.7L56.9,29.7z"/>
	<path class="st2" d="M76.2,75.2H41.5V57.4h8.1v-8.8c0.3-1.4,1.4-2.4,3.6-2.8l2.9,5.3c0.3,0.5,0.7,0.4,1.1-0.2l2.8-5
		c0-0.1,0-0.1,0.1-0.1c2.2,0.4,3.4,1.3,3.6,2.8v8.8h12.4V75.2z M56.7,37.3c-2,0-3.6,1.6-3.6,3.6s1.6,3.6,3.6,3.6
		c2,0,3.6-1.6,3.6-3.6S58.7,37.3,56.7,37.3L56.7,37.3z"/>
	<path class="st3" d="M44.1,79.4c0,1-0.8,1.9-1.9,1.9c-1,0-1.9-0.9-1.9-1.9v-14h-2.1v14c0,1-0.9,1.9-1.9,1.9c-1,0-1.9-0.9-1.9-1.9
		v-14v-7.7v-4l-1.8,9.1c-0.2,0.9-1.1,1.5-2,1.4c-0.9-0.2-1.5-1.1-1.4-2l2.5-12.5c0.4-2.2,2.9-3.3,7.6-3.2c4.6-0.1,7.1,1,7.5,3.2
		l2.5,12.5c0.2,0.9-0.4,1.8-1.4,2c-0.9,0.2-1.8-0.4-2-1.4l-1.8-9.1v4v7.7V79.4z M39.3,37.4c-2.1,0-3.8,1.7-3.8,3.8
		c0,2.1,1.7,3.8,3.8,3.8s3.8-1.7,3.8-3.8C43.1,39.2,41.4,37.4,39.3,37.4L39.3,37.4z"/>
</g>
</svg>
