<?xml version="1.0" encoding="utf-8"?>
<!-- Generator: Adobe Illustrator 19.0.1, SVG Export Plug-In . SVG Version: 6.00 Build 0)  -->
<svg version="1.1" id="Слой_1" xmlns="http://www.w3.org/2000/svg" xmlns:xlink="http://www.w3.org/1999/xlink" x="0px" y="0px"
	 viewBox="0 0 100 100" style="enable-background:new 0 0 100 100;" xml:space="preserve">
<style type="text/css">
	.st0{fill-rule:evenodd;clip-rule:evenodd;fill:#FEFEFE;}
	.st1{fill-rule:evenodd;clip-rule:evenodd;fill:#B6DFEE;}
	.st2{fill-rule:evenodd;clip-rule:evenodd;fill:#0D66A2;}
	.st3{fill:#3C1311;}
	.st4{fill:#0D66A2;}
</style>
<g>
	<path class="st0" d="M50,91.1c18.9,0,34.4-15.4,34.4-34.4c0-19-15.4-34.4-34.4-34.4c-19,0-34.4,15.4-34.4,34.4
		C15.6,75.6,31.1,91.1,50,91.1L50,91.1z"/>
	<path class="st1" d="M50,90.2c18.5,0,33.5-15.1,33.5-33.5c0-18.5-15.1-33.6-33.5-33.6c-18.5,0-33.6,15.1-33.6,33.6
		C16.5,75.1,31.5,90.2,50,90.2L50,90.2z"/>
	<path class="st2" d="M59.9,83.3l-11.4-3.4l2.7-1.4c0.1,0.1,0.2,0.2,0.3,0.3l8.4,2.2c0.1,0,0.3,0,0.4-0.1l3.4-2.3
		c0.1-0.1,0.2-0.2,0.2-0.4l0-1.3l4.2,0.8L59.9,83.3z M51.5,78.2l3.3-1.6l5.6,1.2v-1.6l3,0.6v1.4L60,80.5L51.5,78.2z M55.5,76.3
		l1.5-0.7l2.9,0.6v1.1L55.5,76.3z"/>
	<path class="st2" d="M50.8,47.9l3.6-9.4l11,0c0,0,0.6,0.7,1.7,2c0,0-0.5,1.9-1.6,5.6c0,0,0,3.1,0,9.4c0,0-0.8,0.8-2.4,2.3
		c0,0,0.1,6.8,0.1,20.5c0,0-1.1,0.8-3.4,2.3l-8.4-2.3l-0.7-2.5l9.5,2.1V50.2h-0.5v27l-9.2-2V47.9z"/>
	<polygon class="st0" points="60.5,48.4 52,47.8 55.1,39.6 63.9,39.6 	"/>
	<path class="st3" d="M46.6,80.1c0,1.1-0.9,2-2,2c-1.1,0-2-0.9-2-2V65.3h-2.2v14.8c0,1.1-0.9,2-2,2s-2-0.9-2-2V65.3v-8.2V53
		l-1.9,9.6c-0.2,1-1.2,1.6-2.2,1.4c-1-0.2-1.6-1.1-1.4-2.1l2.7-13.3c0.4-2.4,3-3.5,8-3.4c4.9-0.1,7.6,1.1,8,3.4l2.6,13.3
		c0.2,1-0.5,1.9-1.4,2.1s-2-0.5-2.2-1.4L46.6,53v4.2v8.2V80.1z M41.4,35.8c-2.2,0-4.1,1.8-4.1,4.1s1.8,4.1,4.1,4.1
		c2.2,0,4.1-1.8,4.1-4.1S43.7,35.8,41.4,35.8L41.4,35.8z"/>
	<path class="st0" d="M61.8,20.5l-9,13.3l-0.7-0.5c-1-0.7-2-1.5-2.3-2.7c-0.2-0.7,0-1.1,0-1.8c0-0.4-0.3-0.6-0.5-0.8
		c-0.3-0.2-0.6-0.4-0.9-0.3c-0.6,0.3-0.9,0.6-1.6,0.7c-1.2,0.2-2.4-0.5-3.3-1.1l-0.7-0.5L54.9,8.9l0.7,0.5c0.9,0.7,2,1.5,2.3,2.7
		c0.2,0.8,0,1.1,0,1.8c0,0.3,0.3,0.6,0.5,0.7c0.3,0.2,0.6,0.4,0.9,0.3c0.6-0.2,0.9-0.5,1.6-0.7c1.2-0.2,2.4,0.5,3.3,1.1l0.7,0.5
		L61.8,20.5z"/>
	<path class="st2" d="M55.1,10.1c3.9,2.6,0.5,3.5,2.8,5.2c2.4,1.6,2-1.9,5.9,0.7L61.1,20l-8.7-6L55.1,10.1z M48.7,22.4l0.8,0.5
		l1.1-0.8l1.5,1l-0.3,1.3l0.8,0.6l1.2-5.4l-0.6-0.4L48.7,22.4z M51.3,21.7l0.9-0.6c0.3-0.3,0.5-0.4,0.7-0.5l0,0
		c-0.1,0.2-0.1,0.4-0.2,0.8l-0.3,1L51.3,21.7z M53.8,25.9l0.7,0.5l2.9-4.2l-0.6-0.4L55,21.5l-0.1,0.8l1.3,0.2L53.8,25.9z M60.6,20.7
		l-1.5,2.2l-2,2.8l-4.6,6.9c-3.9-2.6-0.5-3.6-2.8-5.2c-2.4-1.6-2,1.9-5.9-0.7l4.7-6.9l1.9-2.8l1.5-2.2L60.6,20.7z"/>
</g>
</svg>
