<?xml version="1.0" encoding="utf-8"?>
<!-- Generator: Adobe Illustrator 19.0.1, SVG Export Plug-In . SVG Version: 6.00 Build 0)  -->
<svg version="1.1" id="Слой_1" xmlns="http://www.w3.org/2000/svg" xmlns:xlink="http://www.w3.org/1999/xlink" x="0px" y="0px"
	 viewBox="0 0 100 100" style="enable-background:new 0 0 100 100;" xml:space="preserve">
<style type="text/css">
	.st0{fill-rule:evenodd;clip-rule:evenodd;fill:#FEFEFE;}
	.st1{fill-rule:evenodd;clip-rule:evenodd;fill:#B6DFEE;}
	.st2{fill-rule:evenodd;clip-rule:evenodd;fill:#0D66A2;}
	.st3{fill:#3C1311;}
	.st4{fill:#0D66A2;}
</style>
<g>
	<path class="st0" d="M50,88.8c18.9,0,34.4-15.4,34.4-34.4C84.4,35.5,68.9,20,50,20c-19,0-34.4,15.4-34.4,34.4
		C15.6,73.4,31.1,88.8,50,88.8L50,88.8z"/>
	<path class="st1" d="M50,88c18.5,0,33.5-15.1,33.5-33.6C83.5,36,68.5,20.9,50,20.9c-18.5,0-33.6,15.1-33.6,33.5
		C16.5,72.9,31.5,88,50,88L50,88z"/>
	<path class="st3" d="M57.8,78.7c0,1-0.9,1.9-1.9,1.9c-1,0-1.9-0.9-1.9-1.9v-14h-2.2v14c0,1-0.9,1.9-1.9,1.9s-1.9-0.9-1.9-1.9v-14
		v-7.7v-4l-1.8,9.2c-0.2,0.9-1.1,1.5-2,1.4c-0.9-0.2-1.5-1.1-1.4-2l2.5-12.6c0.4-2.2,2.9-3.3,7.6-3.3c4.7-0.1,7.2,1,7.6,3.3
		l2.5,12.6c0.2,0.9-0.4,1.8-1.4,2c-0.9,0.2-1.8-0.4-2-1.4l-1.8-9.2v4v7.7V78.7z M53,36.6c-2.1,0-3.8,1.7-3.8,3.9s1.7,3.8,3.8,3.8
		c2.1,0,3.9-1.7,3.9-3.8S55.1,36.6,53,36.6L53,36.6z"/>
	<path class="st0" d="M50.5,30.6c5,0,9-4,9-9s-4-9-9-9c-4.9,0-9,4-9,9S45.6,30.6,50.5,30.6L50.5,30.6z"/>
	<path class="st0" d="M43.1,14.2c2-2,4.6-3.1,7.4-3.1c2.8,0,5.4,1.1,7.4,3.1c2,2,3.1,4.6,3.1,7.4s-1.1,5.4-3.1,7.4
		c-2,2-4.6,3.1-7.4,3.1c-2.8,0-5.4-1.1-7.4-3.1c-2-2-3.1-4.6-3.1-7.4S41.1,16.2,43.1,14.2L43.1,14.2z"/>
	<path class="st2" d="M50.5,13.3c-2.3,0-4.4,0.9-5.9,2.4s-2.4,3.6-2.4,5.9c0,2.3,0.9,4.4,2.4,5.9c1.5,1.5,3.6,2.4,5.9,2.4
		c2.3,0,4.4-0.9,5.9-2.4c1.5-1.5,2.4-3.6,2.4-5.9c0-2.3-0.9-4.4-2.4-5.9S52.8,13.3,50.5,13.3L50.5,13.3z M43.7,14.8
		c1.7-1.7,4.1-2.8,6.8-2.8c2.7,0,5.1,1.1,6.8,2.8c1.8,1.8,2.8,4.1,2.8,6.8c0,2.7-1.1,5.1-2.8,6.8c-1.7,1.7-4.1,2.8-6.8,2.8
		c-2.6,0-5-1.1-6.8-2.8c-1.8-1.7-2.8-4.1-2.8-6.8C40.9,19,42,16.6,43.7,14.8L43.7,14.8z"/>
	<path class="st2" d="M44.4,23c-0.1-0.3,0.1-0.7,0.4-0.8c0.3-0.1,0.7,0.1,0.8,0.4c0.3,1,1,1.9,1.8,2.5c0.9,0.6,1.9,0.9,3,0.9
		c1.1,0,2.1-0.3,3-0.9c0.8-0.6,1.5-1.5,1.8-2.5c0.1-0.3,0.5-0.5,0.8-0.4c0.3,0.1,0.5,0.5,0.4,0.8c-0.4,1.3-1.2,2.4-2.3,3.1
		c-1,0.8-2.4,1.2-3.7,1.2s-2.7-0.4-3.7-1.2C45.7,25.4,44.9,24.3,44.4,23L44.4,23z"/>
	<path class="st2" d="M48.2,20.3c0.7,0,1.2-0.6,1.2-1.2c0-0.7-0.5-1.2-1.2-1.2c-0.7,0-1.2,0.5-1.2,1.2C47,19.7,47.6,20.3,48.2,20.3
		L48.2,20.3z"/>
	<path class="st2" d="M52.7,20.3c0.7,0,1.2-0.6,1.2-1.2c0-0.7-0.5-1.2-1.2-1.2c-0.7,0-1.2,0.5-1.2,1.2
		C51.5,19.7,52.1,20.3,52.7,20.3L52.7,20.3z"/>
	<path class="st0" d="M39.9,66.3c4.3,0,8.5,0,12.8,0l1.3,10.3c-5.2,0-10.3,0-15.5,0L39.9,66.3z"/>
	<path class="st4" d="M39.9,65.6h12.8c0.3,0,0.6,0.3,0.7,0.6l1.3,10.3c0.1,0.4-0.2,0.7-0.6,0.7h-0.1l0,0H38.6
		c-0.3,0-0.7-0.3-0.7-0.7c0-0.1,0-0.1,0-0.1l1.3-10.3C39.3,65.8,39.6,65.6,39.9,65.6L39.9,65.6z M52.2,66.9H40.5l-1.2,9h14
		L52.2,66.9z"/>
	<path class="st4" d="M43.8,69.1c0,0.4-0.3,0.7-0.7,0.7s-0.7-0.3-0.7-0.7v-2.8c0-0.7,0.1-1.3,0.5-1.9c0.3-0.6,0.8-1.1,1.4-1.4
		c0.6-0.4,1.3-0.5,2-0.5c0.7,0,1.3,0.2,1.9,0.5c0.6,0.4,1.1,0.9,1.4,1.4c0.3,0.6,0.5,1.3,0.5,2v2.7c0,0.4-0.3,0.7-0.7,0.7
		c-0.3,0-0.7-0.3-0.7-0.7v-2.7v0c0-0.5-0.1-0.9-0.3-1.3c-0.2-0.4-0.5-0.7-0.9-1s-0.9-0.3-1.3-0.3c-0.5,0-0.9,0.1-1.3,0.3
		s-0.7,0.6-0.9,1c-0.2,0.4-0.3,0.8-0.3,1.2v0.1V69.1z"/>
</g>
</svg>
